<?xml version="1.0" encoding="UTF-8"?>
<svg width="97px" height="99px" viewBox="0 0 97 99" version="1.1" xmlns="http://www.w3.org/2000/svg" xmlns:xlink="http://www.w3.org/1999/xlink">
    <title>00 SIX ZERO FINAL ILLUSTRATION_Efficiency</title>
    <g id="Home" stroke="none" stroke-width="1" fill="none" fill-rule="evenodd">
        <g id="00-SIX-ZERO-FINAL-ILLUSTRATION_Efficiency" transform="translate(0.000000, 1.000000)">
            <path d="M60.2255165,53.3944805 C61.5264399,50.7562641 62.7570432,48.0476952 63.1086441,45.1280691 C63.7415258,39.6757552 61.174839,34.2234413 57.3072288,30.3540572 C53.4396185,26.4846732 48.4117252,23.9871617 43.2783516,22.0172934 C37.5120964,19.8363678 31.5348806,18.2182618 25.4170244,17.3036801 C19.7562494,16.4242746 13.4274327,16.2483935 8.82146046,19.695663 C6.46573423,21.4544739 4.81320986,23.9871617 3.5826066,26.6253781 C-1.58592708,37.6355345 -0.144363262,51.07285 5.79769246,61.6960681 C8.01277832,65.6709808 10.931066,69.4348362 14.8338364,71.7916428 C20.7055719,75.3444409 34.4883284,81.0078121 41.5555071,78.1937146 C50.0290895,74.7816214 56.4633865,61.0277199 60.2255165,53.3944805 Z" id="Path" fill="#5DCFC9" fill-rule="nonzero"></path>
            <g id="Group" transform="translate(7.849057, 0.000000)" stroke="#3C4857" stroke-width="2">
                <line x1="31.9396226" y1="56.3320755" x2="43.2301887" y2="42.0226415" id="Path"></line>
                <polyline id="Path" points="43.2301887 42.0226415 65.3283019 42.0226415 74.6264151 56.5132075 43.2301887 95.6981132 11.8943396 56.5132075 21.1320755 42.0226415 43.2301887 42.0226415"></polyline>
                <polyline id="Path" points="74.6264151 56.3320755 48.2415094 56.3320755 38.2792453 56.3320755 11.8943396 56.3320755"></polyline>
                <line x1="54.5207547" y1="56.3320755" x2="43.2301887" y2="42.0226415" id="Path"></line>
                <line x1="43.0490566" y1="94.9132075" x2="31.9396226" y2="56.3320755" id="Path"></line>
                <line x1="54.5207547" y1="56.3320755" x2="43.4716981" y2="94.9132075" id="Path"></line>
                <g transform="translate(2.415094, 10.264151)" id="Path" stroke-linecap="round" stroke-linejoin="round">
                    <line x1="41.0566038" y1="0.422641509" x2="41.0566038" y2="20.1660377"></line>
                    <line x1="18.1132075" y1="6.94339623" x2="27.4716981" y2="23.0037736"></line>
                    <line x1="0.0603773585" y1="26.0226415" x2="10.5056604" y2="31.154717"></line>
                </g>
                <g transform="translate(56.754717, 16.905660)" id="Path" stroke-linecap="round" stroke-linejoin="round">
                    <line x1="9.66037736" y1="0.301886792" x2="0.301886792" y2="16.3622642"></line>
                    <line x1="27.7132075" y1="19.3811321" x2="17.2679245" y2="24.5132075"></line>
                </g>
                <circle id="Oval" cx="28.3169811" cy="4.58867925" r="4.40754717"></circle>
                <circle id="Oval" cx="64.6037736" cy="3.80377358" r="2.95849057"></circle>
                <circle id="Oval" cx="69.6754717" cy="33.4490566" r="2.35471698"></circle>
                <circle id="Oval" cx="1.63018868" cy="49.0867925" r="1.56981132"></circle>
                <rect id="Rectangle" stroke-linecap="round" transform="translate(85.139001, 50.650234) rotate(16.959925) translate(-85.139001, -50.650234) " x="83.2069435" y="48.7181767" width="3.8641145" height="3.8641145"></rect>
                <rect id="Rectangle" stroke-linecap="round" transform="translate(17.211369, 30.421180) rotate(-22.967618) translate(-17.211369, -30.421180) " x="15.2793472" y="28.4891585" width="3.86404377" height="3.86404377"></rect>
                <g transform="translate(4.830189, 10.867925)" id="Path">
                    <line x1="0.301886792" y1="0.543396226" x2="9.78113208" y2="10.5660377"></line>
                    <line x1="9.78113208" y1="0.543396226" x2="0.301886792" y2="10.5660377"></line>
                </g>
                <g transform="translate(52.528302, 12.679245)" id="Path">
                    <line x1="0" y1="0.301886792" x2="6.21886792" y2="6.82264151"></line>
                    <line x1="6.21886792" y1="0.301886792" x2="0" y2="6.82264151"></line>
                </g>
                <g transform="translate(31.396226, 16.905660)" id="Path">
                    <line x1="0.422641509" y1="0.301886792" x2="5.61509434" y2="5.79622642"></line>
                    <line x1="5.61509434" y1="0.301886792" x2="0.422641509" y2="5.79622642"></line>
                </g>
                <line x1="78.6113208" y1="15.0943396" x2="78.6113208" y2="27.6528302" id="Path"></line>
                <line x1="82.5962264" y1="15.0943396" x2="82.5962264" y2="27.6528302" id="Path"></line>
                <line x1="74.3245283" y1="23.3660377" x2="86.8830189" y2="23.3660377" id="Path"></line>
                <line x1="74.3245283" y1="19.3811321" x2="86.8830189" y2="19.3811321" id="Path"></line>
            </g>
        </g>
    </g>
</svg>